<svg xmlns="http://www.w3.org/2000/svg" width="64" height="64" viewBox="0 0 64 64" fill="none">
  <!-- 大脑轮廓 -->
  <path d="M32 8C20 8 12 18 12 28c0 6 2.5 10.5 6 14l2 2v8a2 2 0 002 2h20a2 2 0 002-2v-8l2-2c3.5-3.5 6-8 6-14 0-10-8-20-20-20z" fill="#e6f4ff" stroke="#1677ff" stroke-width="2"/>
  <!-- 芯片电路线 -->
  <line x1="32" y1="16" x2="32" y2="40" stroke="#4096ff" stroke-width="1.5"/>
  <line x1="22" y1="24" x2="42" y2="24" stroke="#4096ff" stroke-width="1.5"/>
  <line x1="22" y1="32" x2="42" y2="32" stroke="#4096ff" stroke-width="1.5"/>
  <!-- 节点 -->
  <circle cx="32" cy="24" r="3" fill="#1677ff"/>
  <circle cx="26" cy="32" r="2" fill="#1677ff"/>
  <circle cx="38" cy="32" r="2" fill="#1677ff"/>
  <circle cx="32" cy="18" r="2" fill="#4096ff"/>
  <circle cx="32" cy="38" r="2" fill="#4096ff"/>
  <!-- AI文字 -->
  <text x="32" y="55" text-anchor="middle" font-family="Arial,sans-serif" font-size="9" font-weight="bold" fill="#1677ff">AI</text>
</svg>
