<svg preserveAspectRatio="none" width="100%" height="100%" overflow="visible" style="display: block;" viewBox="0 0 33.0312 33.0312" fill="none" xmlns="http://www.w3.org/2000/svg">
<g id="Group">
<path id="Vector" d="M16.5156 25.225C11.7132 25.225 7.8062 21.3181 7.8062 16.5156C7.8062 17.3702 8.30856 18.5771 10.7016 19.4745C11.3712 19.7257 12.1319 19.9281 12.9531 20.0782C13.1032 20.8993 13.3057 21.66 13.5567 22.3296C14.4541 24.7227 15.6611 25.225 16.5156 25.225ZM11.3812 15.3689C10.0429 15.8709 9.7417 16.3777 9.7417 16.5156C9.7417 16.6537 10.0429 17.1605 11.3812 17.6623C11.7825 17.8128 12.2255 17.9428 12.6999 18.0518C12.6638 17.5497 12.6447 17.036 12.6447 16.5155C12.6447 15.995 12.6638 15.4814 12.6999 14.9792C12.2255 15.0885 11.7824 15.2184 11.3812 15.3689ZM21.65 15.3689C21.2487 15.2184 20.8057 15.0885 20.3314 14.9795C20.3675 15.4816 20.3865 15.9951 20.3865 16.5157C20.3865 17.0363 20.3675 17.5499 20.3314 18.052C20.8057 17.9429 21.2487 17.8129 21.65 17.6625C22.9883 17.1606 23.2895 16.6538 23.2895 16.5158C23.2897 16.3776 22.9884 15.8708 21.65 15.3689ZM10.7016 13.5567C11.3712 13.3056 12.1319 13.1031 12.9531 12.9531C13.1032 12.132 13.3057 11.3713 13.5567 10.7017C14.4541 8.30856 15.6611 7.80631 16.5156 7.80631C11.7132 7.80631 7.8062 11.7133 7.8062 16.5157C7.8062 15.6611 8.30856 14.4541 10.7016 13.5567ZM16.5156 7.80631C17.3702 7.80631 18.5771 8.30856 19.4745 10.7016C19.7257 11.3712 19.9281 12.1319 20.0782 12.953C20.8993 13.103 21.66 13.3056 22.3297 13.5566C24.7228 14.454 25.225 15.661 25.225 16.5155C25.225 11.7132 21.3181 7.80631 16.5156 7.80631ZM16.5156 14.5802C15.8818 14.5802 15.2621 14.6102 14.6673 14.6673C14.6101 15.2621 14.5802 15.8818 14.5802 16.5156C14.5802 17.1496 14.6102 17.7692 14.6673 18.364C15.2621 18.4212 15.8818 18.451 16.5156 18.451C17.1495 18.451 17.7692 18.421 18.364 18.364C18.4212 17.7692 18.451 17.1495 18.451 16.5156C18.451 15.8817 18.421 15.2621 18.364 14.6673C17.7692 14.6101 17.1495 14.5802 16.5156 14.5802ZM14.9793 20.3314C15.0885 20.8057 15.2184 21.2487 15.3689 21.65C15.8709 22.9883 16.3777 23.2895 16.5156 23.2895C16.6535 23.2895 17.1605 22.9883 17.6623 21.65C17.8128 21.2487 17.9427 20.8057 18.0519 20.3314C17.5498 20.3675 17.0363 20.3865 16.5156 20.3865C15.9951 20.3865 15.4815 20.3675 14.9793 20.3314ZM18.0519 12.6999C17.9427 12.2255 17.8128 11.7825 17.6623 11.3812C17.1604 10.0429 16.6535 9.7417 16.5156 9.7417C16.3777 9.7417 15.8708 10.0429 15.3689 11.3812C15.2184 11.7825 15.0885 12.2255 14.9793 12.6999C15.4815 12.6638 15.995 12.6447 16.5156 12.6447C17.0361 12.6447 17.5498 12.6638 18.0519 12.6999ZM22.3297 19.4745C21.6601 19.7257 20.8994 19.9281 20.0782 20.0782C19.928 20.8993 19.7256 21.66 19.4745 22.3296C18.5771 24.7227 17.3702 25.2249 16.5156 25.2249C21.3181 25.2249 25.225 21.318 25.225 16.5155C25.225 17.3702 24.7227 18.5771 22.3297 19.4745ZM33.0312 16.5156C33.0312 17.8779 32.088 19.0234 30.8203 19.3347C30.4485 21.2259 29.6993 23.0343 28.6234 24.6372C28.8903 25.0761 29.0441 25.5909 29.0441 26.1411C29.0441 27.7419 27.7418 29.0442 26.141 29.0442C25.5908 29.0442 25.076 28.8904 24.637 28.6235C23.0342 29.6992 21.2259 30.4485 19.3345 30.8203C19.0234 32.0879 17.8779 33.0312 16.5156 33.0312C15.1534 33.0312 14.0079 32.0879 13.6965 30.8203C11.8053 30.4485 9.99687 29.6992 8.39398 28.6235C7.95506 28.8904 7.44023 29.0442 6.89008 29.0442C5.28927 29.0442 3.98694 27.7419 3.98694 26.1411C3.98694 25.5909 4.14072 25.0761 4.40759 24.6372C3.33178 23.0343 2.58256 21.2259 2.21069 19.3347C0.94325 19.0234 0 17.8779 0 16.5156C0 15.1534 0.94325 14.0079 2.21091 13.6966C2.58278 11.8054 3.332 9.99698 4.40781 8.39409C4.14094 7.95517 3.98716 7.44034 3.98716 6.89019C3.98716 5.28938 5.28948 3.98705 6.8903 3.98705C7.44045 3.98705 7.95528 4.14083 8.3942 4.4077C9.99709 3.332 11.8054 2.58278 13.6967 2.21091C14.0079 0.943359 15.1534 0 16.5156 0C17.8779 0 19.0234 0.943359 19.3348 2.21091C21.226 2.58278 23.0344 3.332 24.6372 4.4077C25.0761 4.14083 25.5909 3.98705 26.1411 3.98705C27.7419 3.98705 29.0442 5.28938 29.0442 6.89019C29.0442 7.44034 28.8904 7.95517 28.6235 8.39409C29.6994 9.99698 30.4486 11.8054 30.8205 13.6966C32.088 14.0079 33.0312 15.1534 33.0312 16.5156ZM27.225 16.5156C27.225 15.3591 27.905 14.3586 28.8859 13.8923C28.565 12.3762 27.9639 10.925 27.1176 9.62391C26.8122 9.73328 26.4836 9.79333 26.1411 9.79333C24.5402 9.79333 23.2379 8.491 23.2379 6.89019C23.2379 6.54773 23.298 6.21906 23.4073 5.91369C22.1062 5.06734 20.655 4.46622 19.139 4.14531C18.6726 5.1263 17.6722 5.80628 16.5156 5.80628C15.3591 5.80628 14.3586 5.1263 13.8923 4.14531C12.3762 4.46622 10.925 5.06745 9.62391 5.91369C9.73328 6.21906 9.79333 6.54763 9.79333 6.89019C9.79333 8.491 8.491 9.79333 6.89019 9.79333C6.54773 9.79333 6.21906 9.73328 5.91369 9.62391C5.06734 10.925 4.46611 12.3763 4.14531 13.8923C5.1263 14.3586 5.80628 15.3591 5.80628 16.5156C5.80628 17.6722 5.1263 18.6726 4.14531 19.139C4.46622 20.655 5.06734 22.1062 5.91369 23.4073C6.21906 23.298 6.54763 23.2379 6.89019 23.2379C8.491 23.2379 9.79333 24.5402 9.79333 26.1411C9.79333 26.4835 9.73328 26.8122 9.62391 27.1176C10.925 27.9638 12.3762 28.565 13.8923 28.8859C14.3586 27.905 15.3591 27.225 16.5156 27.225C17.6722 27.225 18.6726 27.905 19.139 28.8859C20.655 28.565 22.1062 27.9638 23.4073 27.1176C23.298 26.8122 23.2379 26.4836 23.2379 26.1411C23.2379 24.5402 24.5402 23.2379 26.1411 23.2379C26.4835 23.2379 26.8122 23.298 27.1176 23.4073C27.9639 22.1062 28.5651 20.6549 28.8859 19.139C27.905 18.6726 27.225 17.6722 27.225 16.5156Z" fill="var(--fill-0, white)"/>
</g>
</svg>
