<svg width="128" height="128" viewBox="0 0 128 128" fill="none" xmlns="http://www.w3.org/2000/svg">
<rect width="128" height="128" rx="24" fill="#13DBB4"/>
<path d="M79.0954 33.8219C80.8697 32.0475 83.229 31.0703 85.7383 31.0703C88.2477 31.0703 90.6068 32.0475 92.3813 33.8217C94.1557 35.5963 95.1329 37.9555 95.1329 40.4648C95.1329 42.9742 94.1557 45.3334 92.3813 47.1078L83.9586 55.5305C83.5932 55.8959 83.2635 56.2872 82.9669 56.6981C83.874 56.8509 84.8 56.9297 85.7383 56.9297C90.1361 56.9297 94.2708 55.217 97.3807 52.1072C100.491 48.9975 102.203 44.8628 102.203 40.4648C102.203 36.0669 100.491 31.9322 97.3807 28.8225C94.2708 25.7127 90.1361 24 85.7382 24C81.3402 24 77.2055 25.7127 74.0958 28.8225C70.1816 32.7369 68.6541 38.1478 69.5132 43.2305C69.9211 42.9355 70.3096 42.6077 70.6725 42.2447L79.0954 33.8219Z" fill="white"/>
<path d="M35.6188 47.1078C33.8444 45.3334 32.8672 42.9742 32.8672 40.4648C32.8672 37.9555 33.8444 35.5963 35.6188 33.8219C37.3931 32.0475 39.7523 31.0703 42.2617 31.0703C44.7711 31.0703 47.1302 32.0475 48.9047 33.8217L57.3273 42.2445C57.6903 42.6075 58.0787 42.9353 58.4867 43.2303C59.3458 38.1478 57.8184 32.7367 53.9041 28.8223C50.7944 25.7127 46.6595 24 42.2617 24C37.8639 24 33.7291 25.7127 30.6194 28.8225C27.5095 31.9322 25.7969 36.0669 25.7969 40.4648C25.7969 44.8628 27.5095 48.9975 30.6194 52.1072C33.7291 55.217 37.8638 56.9297 42.2617 56.9297C43.2 56.9297 44.1263 56.8511 45.0331 56.6981C44.7366 56.287 44.4069 55.8958 44.0414 55.5305L35.6188 47.1078Z" fill="white"/>
<path d="M48.9047 90.5766C47.1305 92.3509 44.7711 93.3281 42.2617 93.3281C39.7523 93.3281 37.3931 92.3509 35.6188 90.5766C33.8444 88.8022 32.8672 86.443 32.8672 83.9336C32.8672 81.4242 33.8444 79.065 35.6188 77.2906L44.0414 68.868C44.4069 68.5025 44.7366 68.1113 45.0331 67.7003C44.1261 67.5475 43.2 67.4688 42.2617 67.4688C37.8639 67.4688 33.7292 69.1814 30.6194 72.2913C27.5095 75.4011 25.7969 79.5358 25.7969 83.9336C25.7969 88.3316 27.5095 92.4663 30.6194 95.5759C33.7291 98.6858 37.8638 100.398 42.2617 100.398C46.6597 100.398 50.7944 98.6858 53.9042 95.5759C57.8184 91.6616 59.3459 86.2506 58.4869 81.168C58.0789 81.463 57.6905 81.7908 57.3275 82.1538L48.9047 90.5766Z" fill="white"/>
<path d="M66.2314 68.8862C65.5078 69.1267 64.753 69.2486 63.9978 69.2486C62.1922 69.2486 60.3867 68.5614 59.0122 67.1867C56.263 64.4376 56.263 59.9645 59.0122 57.2154C61.7613 54.4662 66.2345 54.4662 68.9834 57.2154C71.59 59.822 71.7234 63.9771 69.3872 66.7445C69.3878 66.7443 69.3884 66.744 69.3892 66.7437L76.6644 64.3187C76.0183 60.0361 77.342 55.5136 80.6397 52.2159L89.0623 43.7932C90.9005 41.955 90.9005 38.9746 89.0623 37.1365C87.2242 35.2982 84.2439 35.2982 82.4056 37.1365L73.983 45.5592C68.4684 51.0739 59.5273 51.0739 54.0128 45.5592L45.59 37.1365C43.7517 35.2982 40.7714 35.2982 38.9333 37.1365C37.0952 38.9748 37.0952 41.9551 38.9333 43.7932L47.3559 52.2159C52.8706 57.7304 52.8706 66.6715 47.3559 72.1861L38.9333 80.6087C37.0952 82.447 37.0952 85.4273 38.9333 87.2654C40.7716 89.1037 43.7519 89.1037 45.59 87.2654L54.0127 78.8428C56.9184 75.937 60.7756 74.5642 64.5816 74.7207V73.414C64.5816 71.7139 65.1898 70.1239 66.2314 68.8862Z" fill="white"/>
<path d="M62.3317 60.5281C61.4103 61.4495 61.4103 62.9489 62.3317 63.8703C63.2532 64.7917 64.7523 64.7917 65.674 63.8703C66.5954 62.9489 66.5954 61.4495 65.674 60.5281C65.2276 60.0819 64.6342 59.8359 64.0029 59.8359C63.3717 59.8359 62.7781 60.0819 62.3317 60.5281Z" fill="white"/>
<path d="M100.6 71.1865L86.4794 66.4795C85.9984 66.3193 85.4781 66.3193 84.9972 66.4795L70.8761 71.1865C69.9191 71.5056 69.2734 72.4012 69.2734 73.41V82.0601C69.2734 91.9737 75.5922 100.741 84.9972 103.876C85.2377 103.956 85.4881 103.996 85.7383 103.996C85.9884 103.996 86.2389 103.956 86.4794 103.876C95.8842 100.741 102.203 91.9737 102.203 82.0601V73.41C102.203 72.4011 101.558 71.5056 100.6 71.1865ZM92.4252 84.6117L83.9809 89.7482C83.6016 89.9789 83.1808 90.0898 82.7645 90.0898C82.0423 90.0898 81.3334 89.7565 80.8766 89.1368L78.3833 85.7556C77.615 84.7139 77.8369 83.2464 78.8786 82.4782C79.9202 81.71 81.3878 81.9317 82.1559 82.9736L83.3767 84.6292L89.9889 80.6068C91.0955 79.934 92.5369 80.2856 93.2094 81.3912C93.882 82.4971 93.5309 83.9389 92.4252 84.6117Z" fill="white"/>
</svg>
