<svg width="128" height="128" viewBox="0 0 128 128" fill="none" xmlns="http://www.w3.org/2000/svg">
<rect width="128" height="128" rx="24" fill="#3916FF"/>
<path d="M82.0694 61.6552H83.6772C83.2378 57.9433 81.7697 54.5423 79.565 51.7472L78.4339 52.8783C77.9763 53.3359 77.3764 53.5648 76.7767 53.5648C76.177 53.5648 75.577 53.3359 75.1195 52.8783C74.2042 51.9631 74.2042 50.4791 75.1195 49.5637L76.2506 48.4327C73.4555 46.228 70.0545 44.7597 66.3427 44.3203L66.3425 63.9989C66.3425 65.2933 65.2931 66.3427 63.9988 66.3427H55.3575C54.0631 66.3427 53.0138 65.2933 53.0138 63.9989C53.0138 62.7045 54.0631 61.6552 55.3575 61.6552H61.655V44.3203C57.9431 44.7597 54.542 46.2278 51.7469 48.4327L52.878 49.5637C53.7933 50.4789 53.7933 51.963 52.878 52.8783C52.4203 53.3359 51.8205 53.5648 51.2208 53.5648C50.6211 53.5648 50.0211 53.3359 49.5636 52.8783L48.4325 51.7472C46.2278 54.5423 44.7597 57.9433 44.3203 61.6552H45.9281C47.2225 61.6552 48.2719 62.7045 48.2719 63.9989C48.2719 65.2933 47.2225 66.3427 45.9281 66.3427H44.3203C44.7597 70.0545 46.2278 73.4555 48.4325 76.2506L49.5636 75.1195C50.4788 74.2044 51.9628 74.2044 52.8781 75.1195C53.7934 76.0347 53.7934 77.5188 52.8781 78.4341L51.747 79.5652C54.5422 81.7698 57.9431 83.2381 61.655 83.6775V82.0695C61.655 80.7752 62.7044 79.7258 63.9988 79.7258C65.2931 79.7258 66.3425 80.7752 66.3425 82.0695V83.6775C70.0544 83.2381 73.4555 81.77 76.2506 79.5652L75.1195 78.4341C74.2042 77.5189 74.2042 76.0348 75.1195 75.1195C76.0347 74.2044 77.5187 74.2044 78.4341 75.1195L79.5652 76.2506C81.7698 73.4555 83.238 70.0545 83.6773 66.3427H82.0695C80.7752 66.3427 79.7258 65.2933 79.7258 63.9989C79.7258 62.7045 80.775 61.6552 82.0694 61.6552Z" fill="white"/>
<path d="M101.986 74.2469L98.1409 71.1361C98.6273 68.7972 98.8734 66.4036 98.8734 64C98.8734 61.5964 98.6275 59.2028 98.1409 56.8639L101.986 53.7531C102.883 53.0278 103.118 51.758 102.542 50.7592L94.7369 37.2408C94.1603 36.242 92.9428 35.8114 91.8661 36.225L87.2416 38.0027C83.657 34.7978 79.4344 32.3567 74.8892 30.8614L74.1181 25.9781C73.9383 24.8391 72.9564 24 71.8031 24H56.1934C55.0401 24 54.0583 24.8391 53.8784 25.9781L53.1073 30.8614C48.562 32.3567 44.3395 34.7978 40.755 38.0027L36.1305 36.225C35.0539 35.8108 33.8364 36.242 33.2597 37.2408L25.4548 50.7592C24.8783 51.7581 25.1137 53.028 26.0105 53.7531L29.8556 56.8639C29.3692 59.2028 29.1231 61.5964 29.1231 64C29.1231 66.4036 29.369 68.7972 29.8556 71.1361L26.0105 74.2469C25.1137 74.9722 24.8781 76.242 25.4548 77.2408L33.2597 90.7592C33.8362 91.758 35.0539 92.1889 36.1305 91.775L40.755 89.9973C44.3394 93.202 48.562 95.6431 53.1073 97.1386L53.8784 102.022C54.0583 103.161 55.0401 104 56.1934 104H71.8031C72.9564 104 73.9383 103.161 74.1181 102.022L74.8892 97.1386C79.435 95.6431 83.6569 93.2023 87.2416 89.9973L91.8661 91.775C92.9426 92.1891 94.1601 91.7581 94.7369 90.7592L102.542 77.2408C103.118 76.242 102.883 74.9722 101.986 74.2469ZM63.9984 88.5053C50.4861 88.5053 39.4931 77.5123 39.4931 64C39.4931 50.4877 50.4861 39.4947 63.9984 39.4947C77.5106 39.4947 88.5036 50.4877 88.5036 64C88.5036 77.5123 77.5106 88.5053 63.9984 88.5053Z" fill="white"/>
</svg>
