<svg width="128" height="128" viewBox="0 0 128 128" fill="none" xmlns="http://www.w3.org/2000/svg">
<rect width="128" height="128" rx="24" fill="#1677FF"/>
<g clip-path="url(#clip0_343858_189)">
<path d="M101.656 24H82.75C81.4545 24 80.4062 25.0483 80.4062 26.3438C80.4062 27.6392 81.4545 28.6875 82.75 28.6875H89.7812V33.6875H87.4375C86.142 33.6875 85.0938 34.7358 85.0938 36.0312V40.7188C85.0938 43.7703 87.0591 46.3475 89.7812 47.3183V50.0938C89.7812 51.3869 88.7306 52.4375 87.4375 52.4375H84.662C83.6912 49.7153 81.1141 47.75 78.0625 47.75H59.3125C56.2609 47.75 53.6838 49.7153 52.713 52.4375H49.9375C48.6444 52.4375 47.5938 51.3869 47.5938 50.0938V47.3183C50.3159 46.3475 52.2812 43.7703 52.2812 40.7188V36.0312C52.2812 34.7358 51.233 33.6875 49.9375 33.6875H47.5938V28.6875H54.625C55.9205 28.6875 56.9688 27.6392 56.9688 26.3438C56.9688 25.0483 55.9205 24 54.625 24H35.875C34.5795 24 33.5312 25.0483 33.5312 26.3438C33.5312 27.6392 34.5795 28.6875 35.875 28.6875H42.9062V33.6875H40.5625C39.267 33.6875 38.2188 34.7358 38.2188 36.0312V40.7188C38.2188 43.7703 40.1841 46.3475 42.9062 47.3183V50.0938C42.9062 53.9709 46.0603 57.125 49.9375 57.125H52.2812V59.4688C52.2812 60.7642 53.3295 61.8125 54.625 61.8125H82.75C84.0455 61.8125 85.0938 60.7642 85.0938 59.4688V57.125H87.4375C91.3147 57.125 94.4688 53.9709 94.4688 50.0938V47.3183C97.1909 46.3475 99.1562 43.7703 99.1562 40.7188V36.0312C99.1562 34.7358 98.108 33.6875 96.8125 33.6875H94.4688V28.6875H101.656C102.952 28.6875 104 27.6392 104 26.3438C104 25.0483 102.952 24 101.656 24Z" fill="white"/>
<path d="M60.2109 66.5L61.9069 69.892C62.3052 70.6863 63.1153 71.1875 64.0034 71.1875H73.3784C74.2666 71.1875 75.0767 70.6863 75.475 69.892L77.1709 66.5H60.2109Z" fill="white"/>
<path d="M28.8438 71.1875H26.3438C25.0494 71.1875 24 72.2366 24 73.5312V101.656C24 102.951 25.0494 104 26.3438 104H33.5312V75.875C33.5312 73.2861 31.4327 71.1875 28.8438 71.1875Z" fill="white"/>
<path d="M103.148 83.1889C100.101 80.8921 95.6795 80.5639 92.2108 82.8608L80.2655 89.9389H54.625C53.3123 89.9389 52.2812 88.9075 52.2812 87.5952C52.2812 86.2825 53.3123 85.2514 54.625 85.2514H73.375C78.5781 85.2514 81.25 79.8138 80.2655 77.4231C79.9377 76.5327 79.0936 75.8764 78.0625 75.8764H61.0937C60.1277 75.8764 59.6655 75.4499 58.4313 74.3224C56.0039 72.1861 52.165 70.4746 48.3547 70.3141C42.6866 70.0539 39.1458 72.8228 38.2188 73.2514V104.001H79L103.054 86.845C104.226 85.9544 104.367 84.0796 103.148 83.1889Z" fill="white"/>
</g>
<defs>
<clipPath id="clip0_343858_189">
<rect width="80" height="80" fill="white" transform="translate(24 24)"/>
</clipPath>
</defs>
</svg>
