<svg preserveAspectRatio="none" width="100%" height="100%" overflow="visible" style="display: block;" viewBox="0 0 33.0309 33.0312" fill="none" xmlns="http://www.w3.org/2000/svg">
<g id="Group">
<path id="Vector" d="M32.0595 13.6011C32.5965 13.6011 33.0309 13.1666 33.0309 12.6296V8.74355C33.0309 8.20652 32.5964 7.77208 32.0595 7.77208C31.5224 7.77208 31.088 8.20662 31.088 8.74355V11.6581H27.2019V6.8005C27.2019 6.26347 26.7673 5.82903 26.2304 5.82903H21.3729V1.94294H24.2874C24.8244 1.94294 25.2588 1.50839 25.2588 0.971469C25.2588 0.434438 24.8243 0 24.2874 0H20.4014C19.8644 0 19.4299 0.434547 19.4299 0.971469V5.82903H17.4869V0.971469C17.4869 0.434438 17.0523 0 16.5154 0C15.9785 0 15.5439 0.434547 15.5439 0.971469V5.82903H13.6009V0.971469C13.6009 0.434438 13.1663 0 12.6294 0H8.74344C8.20641 0 7.77197 0.434547 7.77197 0.971469C7.77197 1.5085 8.20652 1.94294 8.74344 1.94294H11.658V5.82903H6.80039C6.26336 5.82903 5.82892 6.26358 5.82892 6.8005V11.6581H1.94294V8.74355C1.94294 8.20652 1.50839 7.77208 0.971469 7.77208C0.434438 7.77208 0 8.20662 0 8.74355V12.6296C0 13.1666 0.434547 13.6011 0.971469 13.6011H5.82903V15.5442H0.971469C0.434438 15.5442 0 15.9787 0 16.5156C0 17.0525 0.434547 17.4871 0.971469 17.4871H5.82903V19.4301H0.971469C0.434438 19.4301 0 19.8647 0 20.4016V24.2877C0 24.8246 0.434547 25.2592 0.971469 25.2592C1.5085 25.2592 1.94294 24.8246 1.94294 24.2877V21.3732H5.82892V26.2308C5.82892 26.7678 6.26347 27.2022 6.80039 27.2022H11.658V31.0883H8.74344C8.20641 31.0883 7.77197 31.5229 7.77197 32.0598C7.77197 32.5967 8.20652 33.0312 8.74344 33.0312H12.6294C13.1665 33.0312 13.6009 32.5967 13.6009 32.0598V27.2022H15.5439V32.0598C15.5439 32.5968 15.9785 33.0312 16.5154 33.0312C17.0523 33.0312 17.4869 32.5967 17.4869 32.0598V27.2022H19.4299V32.0598C19.4299 32.5968 19.8645 33.0312 20.4014 33.0312H24.2874C24.8244 33.0312 25.2588 32.5967 25.2588 32.0598C25.2588 31.5229 24.8243 31.0883 24.2874 31.0883H21.3729V27.2022H26.2304C26.7675 27.2022 27.2019 26.7677 27.2019 26.2308V21.3732H31.088V24.2877C31.088 24.8246 31.5225 25.2592 32.0595 25.2592C32.5965 25.2592 33.0309 24.8246 33.0309 24.2877V20.4016C33.0309 19.8647 32.5964 19.4301 32.0595 19.4301H27.2019V17.4871H32.0595C32.5965 17.4871 33.0309 17.0525 33.0309 16.5156C33.0309 15.9787 32.5964 15.5442 32.0595 15.5442H27.2019V13.6011H32.0595ZM22.3443 17.4871H21.3729V20.4016C21.3729 20.9386 20.9383 21.3731 20.4014 21.3731H17.4869V22.3447C17.4869 22.8816 17.0523 23.3161 16.5154 23.3161C15.9785 23.3161 15.5439 22.8816 15.5439 22.3447V21.3731H12.6294C12.0924 21.3731 11.658 20.9385 11.658 20.4016V17.4871H10.6865C10.1495 17.4871 9.71502 17.0525 9.71502 16.5156C9.71502 15.9787 10.1496 15.5442 10.6865 15.5442H11.658V12.6296C11.658 12.0926 12.0925 11.6581 12.6294 11.6581H15.5439V10.6866C15.5439 10.1497 15.9785 9.71513 16.5154 9.71513C17.0523 9.71513 17.4869 10.1497 17.4869 10.6866V11.6581H20.4014C20.9384 11.6581 21.3729 12.0926 21.3729 12.6296V15.5442H22.3443C22.8814 15.5442 23.3158 15.9787 23.3158 16.5156C23.3158 17.0525 22.8814 17.4871 22.3443 17.4871ZM13.6008 19.4301H19.4298V13.6011H13.6008V19.4301ZM16.5153 15.5442C17.0518 15.5442 17.4868 15.979 17.4868 16.5156C17.4868 17.0521 17.0518 17.4871 16.5153 17.4871C15.9788 17.4871 15.5438 17.0521 15.5438 16.5156C15.5438 15.979 15.9788 15.5442 16.5153 15.5442Z" fill="var(--fill-0, white)"/>
</g>
</svg>
