<svg width="128" height="128" viewBox="0 0 128 128" fill="none" xmlns="http://www.w3.org/2000/svg">
<rect width="128" height="128" rx="24" fill="#13DBB4"/>
<g clip-path="url(#clip0_343858_190)">
<path d="M79.7439 50.9394V30.8684C79.7439 30.0114 79.1905 29.2402 78.3678 28.9998C76.672 28.5044 75.3348 27.1208 74.8534 25.4044C74.6191 24.5686 73.8444 24 72.9764 24H55.4127C54.5245 24 53.7623 24.602 53.5206 25.4567C53.0225 27.2184 51.5809 28.6361 49.7766 29.0638C48.895 29.2727 48.2578 30.0363 48.2578 30.9422V50.9344C48.2578 53.7897 49.8181 56.4155 52.3225 57.7748L63.0839 63.6161C63.6669 63.9325 64.3705 63.9322 64.9533 63.6152L75.6858 57.7764C78.1864 56.4158 79.7439 53.792 79.7439 50.9394ZM71.4023 41.3359L63.4041 48.2145C62.9647 48.5923 62.4203 48.7813 61.8759 48.7813C61.3316 48.7813 60.787 48.5923 60.3478 48.2145L56.5994 44.9909C55.6181 44.1469 55.5067 42.667 56.3506 41.6858C57.1947 40.7044 58.6747 40.593 59.6558 41.437L61.8759 43.3464L68.3458 37.782C69.3275 36.938 70.8069 37.0494 71.6511 38.0308C72.495 39.012 72.3836 40.4919 71.4023 41.3359Z" fill="white"/>
<path d="M37.3834 56.3261C36.4955 55.4381 35.1848 55.1269 33.9052 55.5808C33.8773 55.592 33.8489 55.6036 33.8212 55.6147C31.5803 56.6353 31.235 59.3744 32.7852 60.9248L44.8205 72.9612C45.8205 73.9612 45.7933 75.5997 44.7389 76.565C43.7456 77.4744 42.1919 77.3839 41.2397 76.4315L29.2595 64.4504C26.048 61.2384 26.048 56.012 29.2595 52.8001C30.5366 51.5228 32.1595 50.7178 33.9169 50.4698V35.8378C33.9169 33.0519 31.6322 30.7995 28.8344 30.8525C26.1305 30.9039 24 33.189 24 35.8934V64.6061C24 66.0775 24.418 67.5187 25.2053 68.7618L39.8231 91.8429C41.0497 93.7795 41.7008 96.0248 41.7008 98.3173V101.839C41.7008 103.032 42.6678 103.999 43.8608 103.999H61.505V84.1903C61.505 81.7783 60.5719 79.5169 58.8778 77.8222L37.3834 56.3261Z" fill="white"/>
<path d="M98.9739 30.8524C96.2377 30.9018 94.0802 33.2133 94.0802 35.9501V50.4699C96.8502 50.844 99.5283 52.8161 100.66 55.7374C101.759 58.9472 100.964 62.224 98.7373 64.4504L86.6998 76.496C85.7263 77.4699 84.1478 77.4702 83.1742 76.4971C82.2005 75.5236 82.2 73.9452 83.1731 72.9711L95.2113 60.9252C96.107 60.0296 96.4156 58.7052 95.9466 57.4165C95.6116 56.6115 94.9692 55.9969 94.198 55.6644C92.9453 55.1244 91.4847 55.4546 90.5202 56.4193L69.1192 77.8222C67.4253 79.5166 66.4922 81.7783 66.4922 84.1902V103.999H84.1364C85.3292 103.999 86.2963 103.032 86.2963 101.839V98.3172C86.2963 96.0247 86.9473 93.7794 88.1741 91.8429L102.741 68.7618C103.564 67.4622 104.001 65.9557 104.001 64.4174V35.8377C104.001 33.0533 101.769 30.8019 98.9739 30.8524Z" fill="white"/>
</g>
<defs>
<clipPath id="clip0_343858_190">
<rect width="80" height="80" fill="white" transform="translate(24 24)"/>
</clipPath>
</defs>
</svg>
