<svg xmlns="http://www.w3.org/2000/svg" width="64" height="64" viewBox="0 0 64 64" fill="none">
  <!-- 背景圆 -->
  <circle cx="32" cy="32" r="28" fill="#e6f4ff" stroke="none"/>
  <!-- 中心节点 -->
  <circle cx="32" cy="32" r="6" fill="#1677ff" stroke="none"/>
  <!-- 四周节点 -->
  <circle cx="32" cy="12" r="4" fill="#4096ff" stroke="none"/>
  <circle cx="52" cy="32" r="4" fill="#4096ff" stroke="none"/>
  <circle cx="32" cy="52" r="4" fill="#4096ff" stroke="none"/>
  <circle cx="12" cy="32" r="4" fill="#4096ff" stroke="none"/>
  <!-- 斜向节点 -->
  <circle cx="47" cy="17" r="3" fill="#91caff" stroke="none"/>
  <circle cx="47" cy="47" r="3" fill="#91caff" stroke="none"/>
  <circle cx="17" cy="47" r="3" fill="#91caff" stroke="none"/>
  <circle cx="17" cy="17" r="3" fill="#91caff" stroke="none"/>
  <!-- 连接线 -->
  <line x1="32" y1="16" x2="32" y2="26" stroke="#1677ff" stroke-width="2"/>
  <line x1="32" y1="38" x2="32" y2="48" stroke="#1677ff" stroke-width="2"/>
  <line x1="38" y1="32" x2="48" y2="32" stroke="#1677ff" stroke-width="2"/>
  <line x1="16" y1="32" x2="26" y2="32" stroke="#1677ff" stroke-width="2"/>
  <line x1="36" y1="28" x2="44" y2="20" stroke="#4096ff" stroke-width="1.5"/>
  <line x1="36" y1="36" x2="44" y2="44" stroke="#4096ff" stroke-width="1.5"/>
  <line x1="28" y1="36" x2="20" y2="44" stroke="#4096ff" stroke-width="1.5"/>
  <line x1="28" y1="28" x2="20" y2="20" stroke="#4096ff" stroke-width="1.5"/>
</svg>
