<svg width="128" height="128" viewBox="0 0 128 128" fill="none" xmlns="http://www.w3.org/2000/svg">
<rect width="128" height="128" rx="24" fill="#1677FF"/>
<path d="M64 87.4375C65.2944 87.4375 66.3438 86.3882 66.3438 85.0938C66.3438 83.7993 65.2944 82.75 64 82.75C62.7056 82.75 61.6562 83.7993 61.6562 85.0938C61.6562 86.3882 62.7056 87.4375 64 87.4375Z" fill="white"/>
<path d="M101.656 31.1875H89.7812V28.8438C89.7812 27.5483 88.733 26.5 87.4375 26.5C86.142 26.5 85.0938 27.5483 85.0938 28.8438V31.1875H73.375C72.0795 31.1875 71.0312 32.2358 71.0312 33.5312C71.0312 34.8267 72.0795 35.875 73.375 35.875H85.0938V38.2188C85.0938 39.5119 84.0431 40.5625 82.75 40.5625C73.8297 40.5625 53.0852 40.5625 45.25 40.5625C43.9569 40.5625 42.9062 39.5119 42.9062 38.2188V35.875H54.625C55.9205 35.875 56.9688 34.8267 56.9688 33.5312C56.9688 32.2358 55.9205 31.1875 54.625 31.1875H42.9062V28.8438C42.9062 27.5483 41.858 26.5 40.5625 26.5C39.267 26.5 38.2188 27.5483 38.2188 28.8438V31.1875H26.3438C25.0483 31.1875 24 32.2358 24 33.5312C24 34.8267 25.0483 35.875 26.3438 35.875H38.2188V38.2188C38.2188 42.0959 41.3728 45.25 45.25 45.25H47.5938V52.2812C47.5938 53.4166 47.8895 54.4742 48.3694 55.4247C37.1722 58.2312 28.8438 68.3511 28.8438 80.4062C28.8438 81.7017 29.892 82.75 31.1875 82.75C32.483 82.75 33.5312 81.7017 33.5312 80.4062C33.5312 68.7745 42.9933 59.3125 54.625 59.3125H61.6562V64H59.3125C58.4244 64 57.6142 64.5012 57.2159 65.2955L55.52 68.6875H49.9375C46.0603 68.6875 42.9062 71.8416 42.9062 75.7188V94.4688C42.9062 98.3459 46.0603 101.5 49.9375 101.5H78.0625C81.9397 101.5 85.0938 98.3459 85.0938 94.4688V75.7188C85.0938 71.8416 81.9397 68.6875 78.0625 68.6875H72.48L70.7841 65.2955C70.3858 64.5012 69.5756 64 68.6875 64H66.3438V59.3125H73.375C85.0067 59.3125 94.4688 68.7745 94.4688 80.4062C94.4688 81.7017 95.517 82.75 96.8125 82.75C98.108 82.75 99.1562 81.7017 99.1562 80.4062C99.1562 68.3511 90.8278 58.2312 79.6306 55.4247C80.1105 54.4742 80.4062 53.4166 80.4062 52.2812V45.25H82.75C86.6272 45.25 89.7812 42.0959 89.7812 38.2188V35.875H101.656C102.952 35.875 104 34.8267 104 33.5312C104 32.2358 102.952 31.1875 101.656 31.1875ZM71.0312 85.0938C71.0312 88.9709 67.8772 92.125 64 92.125C60.1228 92.125 56.9688 88.9709 56.9688 85.0938C56.9688 81.2166 60.1228 78.0625 64 78.0625C67.8772 78.0625 71.0312 81.2166 71.0312 85.0938Z" fill="white"/>
</svg>
