<svg width="128" height="128" viewBox="0 0 128 128" fill="none" xmlns="http://www.w3.org/2000/svg">
<rect width="128" height="128" rx="24" fill="#F4870A"/>
<path d="M96.7984 28.7734H31.045C27.1603 28.7734 24 31.9336 24 35.8184V86.5094L43.4747 67.0347C44.3919 66.1175 45.8781 66.1175 46.7955 67.0347L63.9217 84.1611L76.3514 71.7314C77.2686 70.8142 78.7548 70.8142 79.6722 71.7314L103.294 95.1967C103.733 94.2783 104 93.263 104 92.1784V35.8184C104 31.9336 100.683 28.7734 96.7984 28.7734ZM92.1017 42.8634H89.7534V45.2117C89.7534 48.2692 87.7842 50.8516 85.0567 51.8242V58.3294L89.0653 62.338C89.5056 62.7784 89.7534 63.3745 89.7534 63.9983V68.695C89.7534 69.993 88.7031 71.0433 87.4052 71.0433C86.1072 71.0433 85.0569 69.993 85.0569 68.695V64.9706L81.7361 61.65H69.5908L66.27 64.9708V68.6952C66.27 69.9931 65.2197 71.0434 63.9217 71.0434C62.6237 71.0434 61.5734 69.9931 61.5734 68.6952V63.9984C61.5734 63.3747 61.8211 62.7784 62.2616 62.3381L66.2702 58.3294V51.8242C63.5427 50.8516 61.5734 48.2694 61.5734 45.2117V42.8634H59.225C57.927 42.8634 56.8767 41.8131 56.8767 40.5152C56.8767 39.2172 57.927 38.1669 59.225 38.1669H68.6183C69.9163 38.1669 70.9666 39.2172 70.9666 40.5152C70.9666 41.8131 69.9163 42.8634 68.6183 42.8634H66.27V45.2117C66.27 46.5073 67.3227 47.56 68.6183 47.56H82.7083C84.0039 47.56 85.0566 46.5073 85.0566 45.2117V42.8634H82.7083C81.4103 42.8634 80.36 41.8131 80.36 40.5152C80.36 39.2172 81.4103 38.1669 82.7083 38.1669H92.1016C93.3995 38.1669 94.4498 39.2172 94.4498 40.5152C94.4502 41.8131 93.3998 42.8634 92.1017 42.8634Z" fill="white"/>
<path d="M70.9688 52.2578V56.9545H80.362V52.2578C79.8892 52.2578 70.9688 52.2578 70.9688 52.2578Z" fill="white"/>
<path d="M45.1319 72.0156L24.0859 93.0614C24.5256 96.5261 27.4594 99.2233 31.0419 99.2233H48.8562L60.598 87.4816L45.1319 72.0156Z" fill="white"/>
<path d="M78.0109 76.7109L55.5 99.2219H96.7977C97.8822 99.2219 99.0539 98.9553 99.9725 98.5158L78.0109 76.7109Z" fill="white"/>
</svg>
